# xmcd CD database file generated by OrangeCD 6.4
#
# Track frame offsets:
#	150
#	14996
#	31295
#	48509
#	65724
#	87098
#	107840
#	123587
#	138685
#	154970
#	178736
#
# Disc length: 2585 seconds
#
# Revision: 0
# Processed by: cddbd v1.5.2PL0 Copyright (c) Steve Scherf et al.
# Submitted via: OrangeCD 6.4
#
DISCID=a40a170b
DTITLE=Rick Shea - Shelter Valley Blues
DYEAR=2009
DGENRE=
TTITLE0=Back Home To The Blues
TTITLE1=No Good Time For Leavin'
TTITLE2=Steady Drivin' Man
TTITLE3=Shelter Valley Blues
TTITLE4=Ty Robby
TTITLE5=Nelly Bly
TTITLE6=Sweet Little Pocha
TTITLE7=Shinbone Alley
TTITLE8=On The Day Of My Return
TTITLE9=Fishermans Blues
TTITLE10=The Haleiwa Shuffle
EXTD=
EXTT0=
EXTT1=
EXTT2=
EXTT3=
EXTT4=
EXTT5=
EXTT6=
EXTT7=
EXTT8=
EXTT9=
EXTT10=
PLAYORDER=
